<?xml version="1.0" encoding="utf-8"?>
<!-- Generator: Adobe Illustrator 25.1.0, SVG Export Plug-In . SVG Version: 6.00 Build 0)  -->
<svg version="1.1" id="Layer_1" xmlns="http://www.w3.org/2000/svg" xmlns:xlink="http://www.w3.org/1999/xlink" x="0px" y="0px"
	 viewBox="0 0 448 448" style="enable-background:new 0 0 448 448;" xml:space="preserve">
<style type="text/css">
	.st0{fill:#F0F6F6;}
</style>
<path class="st0" d="M224,0C100.5,0,0,100.5,0,224s100.5,224,224,224s224-100.5,224-224S347.5,0,224,0z M372.1,103.3
	c26.7,32.5,42.8,73.9,43.3,119.1c-6.3-1.4-69.6-14.1-133.3-6.2c-5.2-12.6-10.1-23.8-16.8-37.5C336,149.8,368.1,108.8,372.1,103.3z
	 M350.8,81.2c-3.5,4.9-32.2,43.5-100.2,69.2c-31.4-57.5-66.1-104.9-71.4-112C239.8,23.7,303.8,39.5,350.8,81.2z M142.7,51.1
	c5,6.9,39.2,54.3,71,110.6c-89.6,23.8-168.4,23.5-177,23.4C49.1,125.7,89,76.3,142.7,51.1z M32.6,224.3c0-2,0.1-3.9,0.1-5.9
	c8.4,0.3,101.1,1.4,196.6-27.2c5.5,10.8,10.8,21.6,15.5,32.5c-69.2,19.5-132,75.5-163.1,128.5C51.2,318.2,32.6,273.4,32.6,224.3z
	 M106.5,375.2c20-40.9,74.2-93.5,151.3-119.8c26.9,69.7,38.1,128.2,40.9,145C237.2,426.6,163.2,419.4,106.5,375.2z M330.8,382.9
	c-2-11.6-12-67.6-37.1-136.4c59.9-9.7,112.7,6,119.1,8.1C404.3,307.9,373.8,353.9,330.8,382.9z"/>
</svg>
