<?xml version="1.0" encoding="utf-8"?>
<!-- Generator: Adobe Illustrator 25.1.0, SVG Export Plug-In . SVG Version: 6.00 Build 0)  -->
<svg version="1.1" id="Layer_1" xmlns="http://www.w3.org/2000/svg" xmlns:xlink="http://www.w3.org/1999/xlink" x="0px" y="0px"
	 viewBox="0 0 18 18" style="enable-background:new 0 0 18 18;" xml:space="preserve">
<style type="text/css">
	.st0{fill:#F0F6F6;}
</style>
<path class="st0" d="M17.4,1.2c0.8,0.8,0.8,2,0,2.8l-1.1,1.1l-3.5-3.5l1.1-1.1c0.8-0.8,2-0.8,2.8,0L17.4,1.2z M6.1,8.4l5.9-5.9
	l3.5,3.5l-5.9,5.9c-0.2,0.2-0.5,0.4-0.8,0.5l-3.2,1.1c-0.3,0.1-0.6,0-0.9-0.2c-0.2-0.2-0.3-0.5-0.2-0.8l1.1-3.2
	C5.7,8.9,5.9,8.6,6.1,8.4L6.1,8.4z M6.8,2.1C7.4,2.1,8,2.6,8,3.2c0,0.7-0.5,1.1-1.1,1.1H3.4c-0.6,0-1.1,0.5-1.1,1.1v9.1
	c0,0.6,0.5,1.1,1.1,1.1h9.1c0.6,0,1.1-0.5,1.1-1.1v-3.4c0-0.6,0.5-1.1,1.1-1.1s1.1,0.5,1.1,1.1v3.4c0,1.9-1.5,3.4-3.4,3.4H3.4
	C1.5,18,0,16.5,0,14.6V5.5c0-1.9,1.5-3.4,3.4-3.4H6.8z"/>
</svg>
