<svg xmlns="http://www.w3.org/2000/svg" width="17.953" height="17.953" viewBox="0 0 17.953 17.953">
  <g id="Layer_2" data-name="Layer 2" transform="translate(0)">
    <g id="Layer_1" data-name="Layer 1" transform="translate(0)">
      <path id="Path_33" data-name="Path 33" d="M12.343,8.977c0,.719-.037,1.414-.1,2.079a.183.183,0,0,1-.183.165H5.892a.183.183,0,0,1-.183-.165,20.5,20.5,0,0,1-.13-2.08,20.5,20.5,0,0,1,.13-2.08.183.183,0,0,1,.183-.165h6.17a.183.183,0,0,1,.183.165C12.307,7.563,12.343,8.258,12.343,8.977Zm5.183-2.244a.183.183,0,0,1,.178.141,9.011,9.011,0,0,1,0,4.206.183.183,0,0,1-.178.141H13.555a.183.183,0,0,1-.183-.2c.061-.665.093-1.373.093-2.045,0-.7-.032-1.383-.093-2.043a.183.183,0,0,1,.183-.2Zm-.449-1.122H13.337a.149.149,0,0,1-.147-.125A12.221,12.221,0,0,0,11.27.3,9,9,0,0,1,17.214,5.4a.149.149,0,0,1-.137.208Zm-5,0H6.057a.149.149,0,0,1-.147-.176,13.92,13.92,0,0,1,.916-3.144A5.7,5.7,0,0,1,8,.484,1.428,1.428,0,0,1,8.977,0a1.437,1.437,0,0,1,.975.484,5.751,5.751,0,0,1,1.175,1.807,14.1,14.1,0,0,1,.947,3.319ZM.74,5.4A9,9,0,0,1,6.684.3,12.2,12.2,0,0,0,4.764,5.485a.149.149,0,0,1-.147.125H.877A.149.149,0,0,1,.74,5.4ZM4.4,6.733a.183.183,0,0,1,.183.2,20.458,20.458,0,0,0-.123,2.043c0,.672.058,1.378.123,2.043a.183.183,0,0,1-.183.2H.426a.183.183,0,0,1-.178-.142,9.047,9.047,0,0,1,0-4.2.183.183,0,0,1,.178-.142ZM6.826,15.66A13.9,13.9,0,0,1,5.9,12.478a.115.115,0,0,1,.114-.135h5.919a.115.115,0,0,1,.114.135,13.9,13.9,0,0,1-.923,3.182,5.731,5.731,0,0,1-1.175,1.809,1.45,1.45,0,0,1-1.006.484A1.454,1.454,0,0,1,8,17.469,5.716,5.716,0,0,1,6.827,15.66Zm-.143,2A9,9,0,0,1,.72,12.5a.115.115,0,0,1,.106-.161h3.82a.115.115,0,0,1,.114.1,12.233,12.233,0,0,0,1.924,5.219Zm4.587,0a12.236,12.236,0,0,0,1.924-5.219.115.115,0,0,1,.114-.1h3.82a.115.115,0,0,1,.106.162A9,9,0,0,1,11.27,17.66Z" transform="translate(0 0)" fill="#f0f6f6"/>
    </g>
  </g>
</svg>
