<?xml version="1.0" encoding="utf-8"?>
<!-- Generator: Adobe Illustrator 25.1.0, SVG Export Plug-In . SVG Version: 6.00 Build 0)  -->
<svg version="1.1" id="Layer_1" xmlns="http://www.w3.org/2000/svg" xmlns:xlink="http://www.w3.org/1999/xlink" x="0px" y="0px"
	 viewBox="0 0 448 448" style="enable-background:new 0 0 448 448;" xml:space="preserve">
<style type="text/css">
	.st0{fill:#F0F6F6;}
</style>
<path class="st0" d="M446.4,131.6c-1.8-35.8-10.1-67.8-36.3-93.8s-58-34.3-93.8-36.1c-37-2.1-147.8-2.1-184.8,0
	C95.9,3.4,64,11.6,37.8,37.8s-34.3,58-36.1,93.8c-2.1,37-2.1,147.8,0,184.8c1.7,35.8,9.9,67.5,36.1,93.8
	c26.2,26.3,58,34.4,93.8,36.3c37,2.1,147.8,2.1,184.8,0c35.8-1.8,67.5-10.1,93.8-36.3c26.3-26.2,34.4-58,36.3-93.8
	C448.5,279.4,448.5,168.5,446.4,131.6z M398.7,356c-7.7,19.5-23.1,34.9-42.6,42.6c-29.5,11.6-99.4,9-132,9c-32.6,0-102.6,2.7-132-9
	c-19.5-7.7-34.9-23.1-42.6-42.6c-11.6-29.4-9.1-99.5-9.1-132s-2.7-102.6,9-132C57.1,72.5,72.5,57.1,92,49.4c29.5-11.6,99.4-9,132-9
	s102.6-2.7,132,9c19.5,7.7,34.9,23.1,42.6,42.6c11.8,29.4,9.1,99.5,9.1,132S410.4,326.6,398.7,356z"/>
<path class="st0" d="M224,109.2c-63.4,0-114.8,51.4-114.8,114.8S160.6,338.8,224,338.8c0.1,0,0.1,0,0.3,0
	c63.3-0.1,114.7-51.5,114.5-114.8C338.8,160.6,287.4,109.2,224,109.2z M224.1,298.7c-41.3,0-74.8-33.3-74.8-74.6
	s33.3-74.8,74.6-74.8s74.6,33.3,74.8,74.8C298.7,265.3,265.4,298.7,224.1,298.7z"/>
<path class="st0" d="M370.3,104.4c0,7.3-3,14-7.8,18.9c-4.8,4.9-11.5,7.9-18.8,8c0-0.1-0.1-0.1-0.1-0.1c-14.8,0-26.7-12-26.7-26.7
	s12-26.7,26.7-26.7C358.4,77.7,370.3,89.7,370.3,104.4z"/>
</svg>
