<?xml version="1.0" encoding="utf-8"?>
<!-- Generator: Adobe Illustrator 25.1.0, SVG Export Plug-In . SVG Version: 6.00 Build 0)  -->
<svg version="1.1" id="Layer_1" xmlns="http://www.w3.org/2000/svg" xmlns:xlink="http://www.w3.org/1999/xlink" x="0px" y="0px"
	 viewBox="0 0 448 448" style="enable-background:new 0 0 448 448;" xml:space="preserve">
<style type="text/css">
	.st0{fill:#F0F6F6;}
</style>
<path class="st0" d="M416.5,232.7l-83.2,83.2c-41.8,41.8-109.6,41.8-151.5,0c-37-37-41.8-95.5-11.4-138l0.8-1.2
	c7-10.6,21.8-13.1,33-5.5c10.7,7,13.2,21.8,5.6,33l-0.8,1.2c-17,23.1-14.3,56.3,6.4,77c23.3,23.3,61.1,23.3,84.5,0l83.2-83.2
	c23.4-23.4,23.4-61.8,0-84.5c-20.6-20.7-53.2-23.4-76.9-6.4l-1.2,0.8c-10.7,7.6-25.5,4.5-33-5.5c-7.6-10.7-5.2-25.4,5.5-33l1.2-0.8
	c42.6-30.5,100.9-25.7,138,11.4C458.3,123.1,458.3,190.8,416.5,232.7z"/>
<path class="st0" d="M277.6,270.2l-0.8,1.2c-7.6,10.6-22.5,13.1-33,5.5c-10.7-7.6-13.2-22.5-5.6-33l0.8-1.2
	c17-23.8,14.3-56.3-6.4-77c-23.3-23.3-61.1-23.3-84.5,0l-83.2,83.2c-23.4,22.7-23.4,61.1,0,84.5c20.6,20.7,53.2,23.4,76.9,6.4
	l1.2-1.5c10.7-7,25.5-4.5,33,6.1c7.9,10.6,5.3,25.4-5.2,33l-1.2,0.8c-43.3,30.5-100.9,25.5-138-11.4c-41.8-41.8-41.8-109.8,0-151.5
	l83.2-83.8c41.2-41.2,109.6-41.2,150.8,0C302.6,168.6,308.1,227.7,277.6,270.2z"/>
</svg>
