<?xml version="1.0" encoding="utf-8"?>
<!-- Generator: Adobe Illustrator 25.1.0, SVG Export Plug-In . SVG Version: 6.00 Build 0)  -->
<svg version="1.1" id="Layer_1" xmlns="http://www.w3.org/2000/svg" xmlns:xlink="http://www.w3.org/1999/xlink" x="0px" y="0px"
	 viewBox="0 0 177.1 142.8" style="enable-background:new 0 0 177.1 142.8;" xml:space="preserve">
<style type="text/css">
	.st0{fill:#8447FF;}
</style>
<path class="st0" d="M157,0H20C9,0,0,9,0,20v74.4c0,11,9,20,20,20h45.8l22.8,28.4l22.8-28.4h45.7c11,0,20-9,20-20V20
	C177,9,168.1,0,157,0z M44.4,71.9c-6.4,0-11.6-5.2-11.6-11.6c0-6.4,5.2-11.6,11.6-11.6S56,53.9,56,60.3C56,66.7,50.8,71.9,44.4,71.9
	z M89.9,71.9c-6.4,0-11.6-5.2-11.6-11.6c0-6.4,5.2-11.6,11.6-11.6s11.6,5.2,11.6,11.6C101.5,66.7,96.3,71.9,89.9,71.9z M135.3,71.9
	c-6.4,0-11.6-5.2-11.6-11.6c0-6.4,5.2-11.6,11.6-11.6s11.6,5.2,11.6,11.6C146.8,66.7,141.7,71.9,135.3,71.9z"/>
</svg>
