<?xml version="1.0" encoding="utf-8"?>
<!-- Generator: Adobe Illustrator 25.1.0, SVG Export Plug-In . SVG Version: 6.00 Build 0)  -->
<svg version="1.1" id="Layer_1" xmlns="http://www.w3.org/2000/svg" xmlns:xlink="http://www.w3.org/1999/xlink" x="0px" y="0px"
	 viewBox="0 0 21.1 18" style="enable-background:new 0 0 21.1 18;" xml:space="preserve">
<style type="text/css">
	.st0{fill:#8447FF;}
</style>
<g id="Layer_2_1_" transform="translate(0)">
	<g id="Layer_1_1_" transform="translate(0 0)">
		<path id="Path_6" class="st0" d="M19.5,1.6c-2.2-2.2-5.7-2.2-7.9,0l0,0l-1.1,1.1l-1-1C7.4-0.5,3.9-0.6,1.7,1.6s-2.2,5.7-0.1,7.9
			c0,0,0,0,0,0l1.1,1.1l7,7c0.5,0.5,1.2,0.5,1.7,0l7-7l1.1-1.1C21.7,7.3,21.7,3.8,19.5,1.6C19.5,1.6,19.5,1.6,19.5,1.6L19.5,1.6z"/>
	</g>
</g>
</svg>
