<svg xmlns="http://www.w3.org/2000/svg" width="20.834" height="20.834" viewBox="0 0 20.834 20.834">
  <g id="Layer_2" data-name="Layer 2" transform="translate(0.002 0.002)">
    <g id="Layer_1" data-name="Layer 1" transform="translate(-0.002 -0.002)">
      <path id="Path_22" data-name="Path 22" d="M11.014.382,13.736,6.31a1.6,1.6,0,0,0,.783.783l5.927,2.722a.66.66,0,0,1,0,1.2L14.52,13.736a1.6,1.6,0,0,0-.783.783l-2.722,5.927a.66.66,0,0,1-1.2,0L7.093,14.52a1.6,1.6,0,0,0-.783-.783L.382,11.014a.66.66,0,0,1,0-1.2L6.31,7.093a1.6,1.6,0,0,0,.783-.783L9.815.382A.66.66,0,0,1,11.014.382Z" transform="translate(0.002 0.002)" fill="#f0f6f6"/>
    </g>
  </g>
</svg>
