<?xml version="1.0" encoding="utf-8"?>
<!-- Generator: Adobe Illustrator 25.1.0, SVG Export Plug-In . SVG Version: 6.00 Build 0)  -->
<svg version="1.1" id="Layer_1" xmlns="http://www.w3.org/2000/svg" xmlns:xlink="http://www.w3.org/1999/xlink" x="0px" y="0px"
	 viewBox="0 0 18 16.2" style="enable-background:new 0 0 18 16.2;" xml:space="preserve">
<style type="text/css">
	.st0{fill:#F0F6F6;}
</style>
<path class="st0" d="M15.8,2.2H9C8.9,2.2,8.7,2.1,8.6,2L7.6,0.2C7.5,0.1,7.3,0,7.2,0H2.3c0,0,0,0,0,0C1,0,0,1,0,2.2V14
	c0,1.2,1,2.2,2.3,2.2h13.5h0c1.2,0,2.2-1,2.2-2.2V4.4C18,3.2,17,2.2,15.8,2.2z M11.3,10.4H9.8V12c0,0.4-0.3,0.8-0.8,0.8
	S8.3,12.4,8.3,12v-1.5H6.7C6.3,10.4,6,10.1,6,9.7c0-0.4,0.3-0.8,0.8-0.8h1.5V7.4C8.3,7,8.6,6.6,9,6.6S9.8,7,9.8,7.4v1.5h1.5
	c0.4,0,0.8,0.3,0.8,0.8C12.1,10.1,11.7,10.4,11.3,10.4z"/>
</svg>
