<svg id="Layer_2" data-name="Layer 2" xmlns="http://www.w3.org/2000/svg" viewBox="0 0 15.99 16"><defs><style>.cls-1{fill:#f0f6f6;}</style></defs><g id="Layer_1" data-name="Layer 1"><path class="cls-1" d="M15.63,13.87l-3.56-3.56a.11.11,0,0,1,0-.16,6.53,6.53,0,0,0,1.06-3.5A6.64,6.64,0,0,0,6.77,0H6.34A6.56,6.56,0,0,0,0,6.77a6.63,6.63,0,0,0,6.64,6.35,6.58,6.58,0,0,0,3.5-1.07l.07,0a.18.18,0,0,1,.1,0l3.56,3.56a1.24,1.24,0,0,0,1.76,0A1.26,1.26,0,0,0,15.63,13.87ZM6.55,11.08a4.52,4.52,0,1,1,4.52-4.52A4.51,4.51,0,0,1,6.55,11.08Z" transform="translate(0 0)"/></g></svg>