<?xml version="1.0" encoding="utf-8"?>
<!-- Generator: Adobe Illustrator 25.1.0, SVG Export Plug-In . SVG Version: 6.00 Build 0)  -->
<svg version="1.1" id="Layer_1" xmlns="http://www.w3.org/2000/svg" xmlns:xlink="http://www.w3.org/1999/xlink" x="0px" y="0px"
	 viewBox="0 0 19.1 21.8" style="enable-background:new 0 0 19.1 21.8;" xml:space="preserve">
<style type="text/css">
	.st0{fill:#F0F6F6;}
</style>
<path class="st0" d="M5.8,0.8C6,0.3,6.5,0,7,0h5.1c0.5,0,1,0.3,1.2,0.8l0.3,0.6h4.1c0.8,0,1.4,0.6,1.4,1.4s-0.6,1.4-1.4,1.4H1.4
	C0.6,4.1,0,3.5,0,2.7s0.6-1.4,1.4-1.4h4.1L5.8,0.8z M1.3,5.4h16.4v13.6c0,1.5-1.2,2.7-2.7,2.7H4c-1.5,0-2.7-1.2-2.7-2.7V5.4z
	 M4.7,8.9v9.5c0,0.4,0.3,0.7,0.7,0.7c0.4,0,0.7-0.3,0.7-0.7V8.9c0-0.4-0.3-0.7-0.7-0.7C5.1,8.2,4.7,8.5,4.7,8.9z M8.8,8.9v9.5
	c0,0.4,0.3,0.7,0.7,0.7c0.4,0,0.7-0.3,0.7-0.7V8.9c0-0.4-0.3-0.7-0.7-0.7C9.2,8.2,8.8,8.5,8.8,8.9z M12.9,8.9v9.5
	c0,0.4,0.3,0.7,0.7,0.7s0.7-0.3,0.7-0.7V8.9c0-0.4-0.3-0.7-0.7-0.7S12.9,8.5,12.9,8.9z"/>
</svg>
