<?xml version="1.0" encoding="utf-8"?>
<!-- Generator: Adobe Illustrator 25.1.0, SVG Export Plug-In . SVG Version: 6.00 Build 0)  -->
<svg version="1.1" id="Layer_1" xmlns="http://www.w3.org/2000/svg" xmlns:xlink="http://www.w3.org/1999/xlink" x="0px" y="0px"
	 viewBox="0 0 448 448" style="enable-background:new 0 0 448 448;" xml:space="preserve">
<style type="text/css">
	.st0{fill:#F0F6F6;}
</style>
<path class="st0" d="M401,133.2c0.3,3.9,0.3,7.9,0.3,11.8c0,120.7-91.9,259.8-259.8,259.8c-51.8,0-99.8-15-140.2-40.9
	c7.4,0.8,14.5,1.1,22,1.1c42.7,0,82-14.5,113.3-39c-40.1-0.8-73.8-27.2-85.4-63.4c14.1,2.1,26.7,2.1,41.2-1.7
	c-41.8-8.5-73.1-45.3-73.1-89.7v-1.1c12.1,6.8,26.3,11,41.2,11.6c-25.5-17-40.7-45.5-40.7-76c0-17,4.5-32.6,12.4-46.1
	c45,55.4,112.5,91.6,188.3,95.5C207.6,93.3,253.9,43,309.6,43c26.3,0,50,11,66.7,28.8c20.6-3.9,40.4-11.6,57.9-22
	c-6.8,21.2-21.2,39-40.1,50.3c18.4-1.9,36.2-7.1,52.6-14.2C434.4,104.1,418.8,120.3,401,133.2z"/>
</svg>
