<?xml version="1.0" encoding="utf-8"?>
<!-- Generator: Adobe Illustrator 25.1.0, SVG Export Plug-In . SVG Version: 6.00 Build 0)  -->
<svg version="1.1" id="Layer_1" xmlns="http://www.w3.org/2000/svg" xmlns:xlink="http://www.w3.org/1999/xlink" x="0px" y="0px"
	 viewBox="0 0 770.1 908.6" style="enable-background:new 0 0 770.1 908.6;" xml:space="preserve">
<style type="text/css">
	.st0{fill:#F0F6F6;}
	.st1{fill:#C0A6FF;}
	.st2{fill:#8447FF;}
</style>
<g>
	<g>
		<path class="st0" d="M770.1,32.5v843.7c0,17.9-14.5,32.5-32.5,32.5H32.5C14.5,908.6,0,894.1,0,876.1V32.5C0,14.5,14.5,0,32.5,0
			h705.1C755.5,0,770.1,14.5,770.1,32.5z"/>
	</g>
	<path class="st1" d="M770.1,742.2v133.9c0,17.9-14.5,32.5-32.5,32.5H295l206.5-206.5l89.7-89.7c13.6-13.6,35.6-13.6,49.2,0
		L770.1,742.2z"/>
	<path class="st2" d="M708,908.6H32.5C14.5,908.6,0,894.1,0,876.1V709l229.6-229.6c13.6-13.6,35.6-13.6,49.2,0l222.7,222.7
		L708,908.6z"/>
	<circle class="st2" cx="483.7" cy="256.4" r="75.9"/>
</g>
</svg>
