<svg id="Layer_2" data-name="Layer 2" xmlns="http://www.w3.org/2000/svg" width="20.433" height="15.893" viewBox="0 0 20.433 15.893">
  <g id="Layer_1" data-name="Layer 1" transform="translate(0)">
    <path id="Path_23" data-name="Path 23" d="M10.03,4.812a.2.2,0,0,1,.18-.271h0A3.406,3.406,0,1,1,6.809,7.946v0a.2.2,0,0,1,.271-.18,2.336,2.336,0,0,0,.864.184,2.272,2.272,0,0,0,2.27-2.27A2.336,2.336,0,0,0,10.03,4.812Zm7.017-1.953a13.746,13.746,0,0,1,3.3,4.651,1.127,1.127,0,0,1,0,.872,14.386,14.386,0,0,1-3.3,4.651,9.982,9.982,0,0,1-6.833,2.859,9.978,9.978,0,0,1-6.832-2.859,14.454,14.454,0,0,1-3.3-4.651,1.133,1.133,0,0,1,0-.872,13.8,13.8,0,0,1,3.3-4.651A9.984,9.984,0,0,1,10.214,0a9.989,9.989,0,0,1,6.833,2.859Zm-6.828-.021a5.108,5.108,0,1,0,5.1,5.1A5.11,5.11,0,0,0,10.219,2.838Z" transform="translate(0.002)" fill="#f0f6f6"/>
  </g>
</svg>
